<?xml version="1.0" encoding="UTF-8" standalone="no"?>
<!-- Created with Inkscape (http://www.inkscape.org/) -->

<svg
   xmlns:dc="http://purl.org/dc/elements/1.1/"
   xmlns:cc="http://creativecommons.org/ns#"
   xmlns:rdf="http://www.w3.org/1999/02/22-rdf-syntax-ns#"
   xmlns:svg="http://www.w3.org/2000/svg"
   xmlns="http://www.w3.org/2000/svg"
   xmlns:sodipodi="http://sodipodi.sourceforge.net/DTD/sodipodi-0.dtd"
   xmlns:inkscape="http://www.inkscape.org/namespaces/inkscape"
   width="210mm"
   height="297mm"
   viewBox="0 0 210 297"
   version="1.1"
   id="svg8"
   inkscape:version="0.92.2 (5c3e80d, 2017-08-06)"
   sodipodi:docname="e-donor.svg"
   inkscape:export-filename="/var/www/html/e-donor/images/e-donr.svg.png"
   inkscape:export-xdpi="96"
   inkscape:export-ydpi="96">
  <defs
     id="defs2" />
  <sodipodi:namedview
     id="base"
     pagecolor="#ffffff"
     bordercolor="#666666"
     borderopacity="1.0"
     inkscape:pageopacity="0.0"
     inkscape:pageshadow="2"
     inkscape:zoom="0.35"
     inkscape:cx="151.42857"
     inkscape:cy="626.62229"
     inkscape:document-units="mm"
     inkscape:current-layer="layer1"
     showgrid="false"
     showguides="true"
     inkscape:window-width="1366"
     inkscape:window-height="709"
     inkscape:window-x="0"
     inkscape:window-y="27"
     inkscape:window-maximized="1"
     inkscape:snap-smooth-nodes="true"
     inkscape:object-paths="true">
    <inkscape:grid
       type="xygrid"
       id="grid815" />
  </sodipodi:namedview>
  <metadata
     id="metadata5">
    <rdf:RDF>
      <cc:Work
         rdf:about="">
        <dc:format>image/svg+xml</dc:format>
        <dc:type
           rdf:resource="http://purl.org/dc/dcmitype/StillImage" />
        <dc:title></dc:title>
      </cc:Work>
    </rdf:RDF>
  </metadata>
  <g
     inkscape:label="Layer 1"
     inkscape:groupmode="layer"
     id="layer1">
    <path
       id="path965"
       style="fill:#000000;stroke:#000000;stroke-width:0.14843196px;stroke-linecap:butt;stroke-linejoin:miter;stroke-opacity:1"
       d="m 126.3725,62.183064 c -30.85131,3.72463 -81.196017,12.193728 -83.337033,49.064186 -0.02756,1.32101 0.0172,2.63634 0.130741,3.94498 H 71.471457 C 78.603176,85.40748 91.112398,81.620043 126.3725,62.183064 Z M 69.947002,124.15603 c -0.0397,0.16984 -0.06454,0.33288 -0.07234,0.48834 0.0105,-0.0328 0.02259,-0.0649 0.03359,-0.0977 0.01241,-0.13022 0.02556,-0.26059 0.03876,-0.39067 z m 1.056783,20.45404 c -0.13843,0.20327 -0.270061,0.38919 -0.389639,0.53899 0.144701,-0.12593 0.279601,-0.28308 0.404625,-0.46612 -0.006,-0.0243 -0.0099,-0.0486 -0.01498,-0.0729 z"
       inkscape:connector-curvature="0" />
    <path
       id="path965-6"
       style="fill:#ff0000;stroke:#000000;stroke-width:0.14843196px;stroke-linecap:butt;stroke-linejoin:miter;stroke-opacity:1"
       d="m 124.87807,157.33628 c -0.0373,0.0178 -0.0659,0.0279 -0.10204,0.0441 -6.79973,29.7011 -19.28401,33.65762 -54.249339,53.4569 30.806689,-4.07727 81.051299,-13.12203 82.770449,-50.01457 0.0125,-1.32124 -0.0479,-2.63584 -0.17639,-3.94309 l -27.5535,0.31502 c -0.23189,0.0697 -0.46368,0.12133 -0.68924,0.14148 z"
       inkscape:connector-curvature="0" />
    <path
       id="path965-6-2"
       style="fill:#2b0000;stroke:#000000;stroke-width:0.15526049px;stroke-linecap:butt;stroke-linejoin:miter;stroke-opacity:1"
       d="m 140.90494,139.45394 c -0.0687,0.14924 -0.14025,0.30131 -0.2183,0.45967 0.0842,1.08115 0.17568,2.14678 0.42215,2.90297 0.11301,-0.0179 0.23192,-0.052 0.35999,-0.10952 -0.11736,0.0458 -0.30655,0.25493 -0.35237,0.13757 l -2.50847,0.97932 -1.68001,0.65589 c 0.82067,1.87057 0.47246,1.42687 -0.25031,0.0977 l -0.10784,0.0421 c -0.0486,0.019 -0.10496,-0.004 -0.16752,-0.0611 0.0124,0.0427 0.021,0.0703 0.0345,0.11303 6.1e-4,0.002 -0.161,0.0627 -0.27342,0.10674 0.0238,0.13044 -0.32955,0.41239 -0.43084,0.59592 -0.0409,0.0742 -0.0804,0.14931 -0.1199,0.22433 -0.003,0.0222 -0.005,0.0443 -0.008,0.0663 -0.005,-0.009 0.009,-0.0357 -0.0111,-0.0312 -0.0549,0.10454 -0.10987,0.20919 -0.16697,0.31262 -0.0566,0.1025 0.10827,-0.20793 0.16227,-0.31188 0.003,-0.001 0.003,-3.6e-4 0.005,-8.9e-4 0.006,-0.012 0.0128,-0.0233 0.019,-0.0351 0.0214,-0.18321 0.0431,-0.36623 0.0645,-0.54943 -1.07923,1.22669 -2.58192,2.18344 -3.23765,3.67994 -0.22434,0.51196 0.3859,0.0855 1.06551,-0.4864 0.0528,-0.45955 0.0259,-0.94312 0.093,-0.66982 0.0421,0.1716 0.0679,0.34689 0.0808,0.52377 0.25087,-0.21642 0.46443,-0.41407 0.67992,-0.61439 0.10859,-0.23521 0.2242,-0.4662 0.36026,-0.68431 0.0329,-0.0528 0.0517,-0.0668 0.0604,-0.053 0.11515,-0.2116 0.22869,-0.4237 0.33589,-0.63873 -0.10985,0.32557 -0.0839,0.73627 -0.32929,0.97678 -0.0199,0.0195 -0.0603,0.0558 -0.0825,0.0772 -0.23333,0.86882 -0.91038,2.70514 -0.88731,1.58793 -0.0597,0.13609 -0.12301,0.26964 -0.18883,0.40159 -0.0266,0.1791 -0.0599,0.35678 -0.0972,0.53111 -0.44382,2.0756 -1.2209,2.18298 -2.88903,3.05678 1.75816,0.73367 2.59223,1.5156 0.0287,2.39252 -0.8614,0.29465 -1.7226,0.58932 -2.58398,0.88398 -0.13671,-0.046 -0.236,-0.0737 -0.36112,-0.11364 -0.24137,0.24426 -0.54081,0.48102 -0.86893,0.69149 l 25.75036,9.96227 c 0.57024,-1.1839 1.0727,-2.40075 1.50336,-3.65191 2.69619,-9.00159 1.5849,-17.5087 -2.06021,-25.45035 -0.63701,0.92799 -1.73157,1.8005 -3.3613,2.43675 l -9.3e-4,3.7e-4 -3.16892,1.23717 -2.46466,0.96222 -1.58374,0.6183 c 1.23615,-0.55528 0.51089,-1.82957 -0.56435,-3.25296 z m -7.08921,9.29431 c 0.13374,-0.30469 0.26031,-0.61456 0.39113,-0.92214 -0.14461,0.29 -0.28159,0.58322 -0.39171,0.88797 -7.5e-4,0.0146 5.7e-4,0.0207 5.5e-4,0.0341 z m 0.39113,-0.92214 c 0.0641,-0.12852 0.1273,-0.25747 0.19492,-0.38453 -0.015,0.0144 -0.0279,0.0265 -0.0434,0.0408 -0.0524,0.11353 -0.10239,0.22826 -0.1515,0.34373 z m 5.90918,-6.82487 c -0.11027,0.19898 -0.23001,0.40645 -0.353,0.61767 0.29658,0.79487 0.70509,1.29632 1.34105,1.1984 -0.21443,-0.53823 -0.57979,-1.16328 -0.98805,-1.81607 z m -13.97891,8.06312 c 0.038,0.16711 0.0782,0.27596 0.0834,0.15663 0.003,-0.0591 -0.003,-0.11968 -0.005,-0.17959 -0.0147,0.004 -0.029,0.008 -0.0437,0.0117 -0.0134,0.003 -0.0221,0.008 -0.0353,0.0106 z m -0.30294,0.83114 c 0.15074,0.42597 0.28926,0.85613 0.42047,1.28873 0.50457,0.19311 1.08128,0.38789 1.66935,0.58426 -0.64984,-0.70974 -1.49625,-1.45511 -2.08982,-1.87299 z m 4.64643,-0.2718 c 0.0653,0.3598 0.13055,0.75643 0.23133,1.2078 0.0684,-0.0332 0.13755,-0.0648 0.20505,-0.10002 -0.10637,-0.39096 -0.23354,-0.77142 -0.43673,-1.10764 z m -1.45963,1.10241 c 0.49013,0.0702 1.0166,0.40912 1.47014,0.21046 0.0388,-0.0173 0.0764,-0.0373 0.11515,-0.0546 -0.55434,-0.0305 -1.10443,-0.11997 -1.58519,-0.15557 z m 1.70195,0.15769 c 0.0487,0.21355 0.10985,0.44113 0.17993,0.677 0.0669,-0.0542 0.12614,-0.11398 0.18064,-0.17815 -0.0398,-0.16555 -0.0841,-0.32925 -0.12642,-0.4943 -0.078,8e-5 -0.15598,-0.002 -0.2342,-0.005 z m 0.53934,-0.003 c -0.0574,0.16547 -0.11664,0.3385 -0.17194,0.49318 0.11304,-0.13527 0.19656,-0.29835 0.2496,-0.49743 -0.0256,0.002 -0.0518,0.003 -0.0777,0.004 z m -0.17695,0.50734 c -0.0439,0.12279 -0.0875,0.23035 -0.13089,0.34678 0.0531,0.16698 0.11151,0.33868 0.17909,0.51701 0.033,0.0873 0.13397,-0.16886 0.10771,-0.25841 -0.0578,-0.1972 -0.10671,-0.40119 -0.15594,-0.60537 z m -8.89382,13.02001 c -0.0318,0.12726 -0.0638,0.25434 -0.0962,0.38152 -3e-5,0.0351 6.4e-4,0.0704 1.3e-4,0.10537 0.046,-0.14905 0.0779,-0.31169 0.0962,-0.48689 z m -8.18126,18.78694 c -0.014,0.0203 -0.0252,0.0432 -0.0404,0.0629 0.0635,0.21986 0.14596,0.41895 0.24888,0.59349 -0.0689,-0.1874 -0.13823,-0.41237 -0.20859,-0.65638 z m 0.2086,0.65639 c 3.4e-4,9.3e-4 0.001,0.003 0.001,0.004 l 5e-4,-1.9e-4 c -5.4e-4,-8.6e-4 -9.4e-4,-0.002 -0.002,-0.004 z"
       inkscape:connector-curvature="0" />
    <rect
       style="fill:#800000;fill-opacity:1;stroke-width:0.26458332"
       id="rect1110"
       width="24.946428"
       height="122.46429"
       x="138.13057"
       y="28.63921"
       ry="1.8956655"
       transform="rotate(28.687018)" />
    <rect
       style="fill:#800000;fill-opacity:1;stroke-width:0.31575361"
       id="rect1128"
       width="86.949043"
       height="34.502541"
       x="200.19122"
       y="93.826965"
       ry="2.2768517"
       transform="matrix(0.81616837,0.57781415,-0.99590484,0.09040769,0,0)" />
  </g>
</svg>
